<?xml version="1.0" encoding="utf-8"?>
<!-- Generator: Adobe Illustrator 13.0.0, SVG Export Plug-In  -->
<!DOCTYPE svg PUBLIC "-//W3C//DTD SVG 1.1//EN" "http://www.w3.org/Graphics/SVG/1.1/DTD/svg11.dtd" [
	<!ENTITY ns_flows "http://ns.adobe.com/Flows/1.0/">
]>
<svg version="1.1"
	 xmlns="http://www.w3.org/2000/svg" xmlns:xlink="http://www.w3.org/1999/xlink" xmlns:a="http://ns.adobe.com/AdobeSVGViewerExtensions/3.0/"
	 x="0px" y="0px" width="300px" height="100px" viewBox="-15.833 -2.36 300 100" enable-background="new -15.833 -2.36 300 100"
	 xml:space="preserve">
<defs>
</defs>
<g>
	<defs>
		<rect id="SVGID_25_" width="258.316" height="95.807"/>
	</defs>
	<clipPath id="SVGID_26_">
		<use xlink:href="#SVGID_25_"  overflow="visible"/>
	</clipPath>
	<path clip-path="url(#SVGID_26_)" fill="#757575" d="M98.796,68.382l-2.181,7.995c-0.056,0.165-0.135,0.285-0.237,0.362
		c-0.102,0.075-0.269,0.114-0.501,0.114s-0.411-0.048-0.539-0.141c-0.127-0.093-0.214-0.205-0.258-0.336l-1.613-5.872l-1.604,5.872
		c-0.045,0.131-0.131,0.243-0.259,0.336s-0.307,0.141-0.539,0.141c-0.233,0-0.4-0.039-0.505-0.114
		c-0.105-0.078-0.182-0.197-0.233-0.362h-0.008l-2.181-7.995h1.341L91.09,74.9l1.417-5.746v-0.016c0-0.006,0.001-0.009,0.004-0.009
		s0.004-0.003,0.004-0.01c0.017-0.05,0.04-0.118,0.068-0.203c0.028-0.084,0.076-0.166,0.145-0.241
		c0.067-0.077,0.161-0.144,0.28-0.199c0.119-0.058,0.274-0.085,0.467-0.085c0.181,0,0.33,0.027,0.446,0.085
		c0.116,0.056,0.209,0.126,0.279,0.208c0.071,0.082,0.124,0.166,0.157,0.255c0.034,0.087,0.06,0.159,0.077,0.215h-0.008l1.417,5.746
		l1.604-6.519H98.796L98.796,68.382z"/>
</g>
<g>
	<defs>
		<rect id="SVGID_24_" width="258.316" height="95.807"/>
	</defs>
	<clipPath id="SVGID_27_">
		<use xlink:href="#SVGID_24_"  overflow="visible"/>
	</clipPath>
	<path clip-path="url(#SVGID_27_)" fill="#757575" d="M107.606,72.456c0,0.125-0.005,0.247-0.017,0.366
		c-0.011,0.119-0.025,0.233-0.042,0.348h-0.025v0.007h-6.485c0.068,0.341,0.181,0.655,0.34,0.942c0.158,0.289,0.35,0.54,0.573,0.752
		c0.224,0.213,0.474,0.378,0.751,0.497c0.277,0.118,0.569,0.178,0.874,0.178c0.374,0,0.725-0.088,1.053-0.263
		c0.328-0.176,0.611-0.417,0.849-0.722l1.095,0.832c-0.373,0.451-0.816,0.81-1.329,1.069c-0.512,0.26-1.067,0.391-1.667,0.391
		c-0.56,0-1.084-0.114-1.574-0.344c-0.49-0.229-0.917-0.543-1.282-0.942c-0.365-0.398-0.652-0.866-0.862-1.4
		c-0.209-0.535-0.314-1.104-0.314-1.711c0-0.604,0.105-1.175,0.314-1.71s0.497-1.001,0.862-1.4c0.365-0.398,0.792-0.713,1.282-0.941
		c0.489-0.229,1.014-0.344,1.574-0.344c0.555,0,1.077,0.114,1.566,0.344c0.489,0.229,0.917,0.543,1.281,0.941
		c0.365,0.399,0.654,0.865,0.866,1.4C107.5,71.281,107.606,71.852,107.606,72.456 M103.574,69.368c-0.305,0-0.597,0.058-0.874,0.178
		c-0.277,0.117-0.527,0.284-0.751,0.496c-0.223,0.212-0.415,0.463-0.573,0.752c-0.159,0.288-0.272,0.603-0.34,0.941h5.067
		c-0.067-0.339-0.179-0.653-0.335-0.941c-0.156-0.289-0.346-0.54-0.568-0.752c-0.224-0.212-0.475-0.379-0.751-0.496
		C104.171,69.426,103.88,69.368,103.574,69.368"/>
</g>
<g>
	<defs>
		<rect id="SVGID_23_" width="258.316" height="95.807"/>
	</defs>
	<clipPath id="SVGID_28_">
		<use xlink:href="#SVGID_23_"  overflow="visible"/>
	</clipPath>
	<path clip-path="url(#SVGID_28_)" fill="#757575" d="M108.735,65.217h1.35v4.074c0.317-0.402,0.684-0.707,1.103-0.917
		s0.879-0.313,1.383-0.313c1.041,0,1.885,0.356,2.529,1.069c0.645,0.712,0.968,1.762,0.968,3.148c0,1.318-0.317,2.407-0.951,3.268
		c-0.645,0.872-1.53,1.308-2.656,1.308c-0.323,0-0.652-0.04-0.989-0.119c-0.336-0.079-0.658-0.227-0.963-0.441
		c-0.152-0.107-0.331-0.251-0.535-0.433c-0.203-0.182-0.397-0.413-0.581-0.696c-0.184-0.282-0.339-0.623-0.467-1.021
		c-0.127-0.399-0.191-0.874-0.191-1.423V65.217L108.735,65.217z M114.082,74.697c0.368-0.583,0.552-1.372,0.552-2.368
		c0-0.878-0.184-1.599-0.552-2.164c-0.368-0.571-0.908-0.856-1.621-0.856c-0.623,0-1.168,0.233-1.639,0.703
		c-0.47,0.464-0.704,1.236-0.704,2.317c0,0.305,0.025,0.604,0.076,0.896c0.051,0.291,0.125,0.558,0.221,0.801
		c0.181,0.458,0.43,0.827,0.747,1.108c0.317,0.279,0.725,0.419,1.222,0.419c0.373,0,0.705-0.067,0.993-0.204
		C113.666,75.215,113.901,74.997,114.082,74.697"/>
</g>
<g>
	<defs>
		<rect id="SVGID_22_" width="258.316" height="95.807"/>
	</defs>
	<clipPath id="SVGID_29_">
		<use xlink:href="#SVGID_22_"  overflow="visible"/>
	</clipPath>
	<path clip-path="url(#SVGID_29_)" fill="#757575" d="M127.322,69.554c0.103,0.227,0.17,0.487,0.204,0.781h-1.409
		c-0.029-0.092-0.061-0.173-0.097-0.246c-0.037-0.073-0.078-0.142-0.124-0.204c-0.283-0.38-0.778-0.568-1.485-0.568
		c-0.572,0-0.976,0.118-1.214,0.356c-0.119,0.124-0.208,0.253-0.268,0.386c-0.059,0.133-0.089,0.281-0.089,0.446
		c0,0.323,0.133,0.563,0.399,0.722c0.198,0.106,0.654,0.245,1.367,0.415l1.094,0.264c0.549,0.131,0.976,0.309,1.282,0.534
		c0.538,0.407,0.806,0.997,0.806,1.766c0,0.95-0.342,1.633-1.027,2.046c-0.656,0.401-1.417,0.603-2.283,0.603
		c-0.509,0-0.962-0.068-1.358-0.204c-0.413-0.142-0.761-0.346-1.043-0.611c-0.295-0.26-0.515-0.578-0.662-0.95
		c-0.091-0.237-0.153-0.503-0.187-0.798h1.392c0.039,0.226,0.116,0.424,0.229,0.594c0.317,0.48,0.882,0.721,1.697,0.721
		c0.368,0,0.707-0.053,1.019-0.16c0.288-0.108,0.499-0.247,0.632-0.416c0.133-0.17,0.199-0.386,0.199-0.646
		c0-0.39-0.107-0.659-0.323-0.807c-0.26-0.17-0.662-0.318-1.205-0.449l-1.061-0.246c-0.708-0.164-1.211-0.348-1.511-0.552
		c-0.543-0.362-0.815-0.911-0.815-1.646c0-0.77,0.26-1.4,0.781-1.893c0.249-0.243,0.563-0.431,0.942-0.561
		c0.356-0.119,0.767-0.178,1.23-0.178c0.854,0,1.584,0.211,2.19,0.637C126.937,68.914,127.169,69.203,127.322,69.554"/>
</g>
<g>
	<defs>
		<rect id="SVGID_21_" width="258.316" height="95.807"/>
	</defs>
	<clipPath id="SVGID_30_">
		<use xlink:href="#SVGID_21_"  overflow="visible"/>
	</clipPath>
	<path clip-path="url(#SVGID_30_)" fill="#757575" d="M132.753,68.061c0.555,0,1.077,0.114,1.565,0.344
		c0.491,0.229,0.917,0.543,1.282,0.941c0.365,0.399,0.654,0.865,0.865,1.4c0.213,0.535,0.318,1.105,0.318,1.71
		c0,0.606-0.105,1.176-0.318,1.711c-0.212,0.534-0.5,1.002-0.865,1.4c-0.365,0.399-0.791,0.713-1.282,0.942
		c-0.488,0.229-1.011,0.344-1.565,0.344c-0.559,0-1.084-0.114-1.575-0.344c-0.488-0.229-0.916-0.543-1.281-0.942
		c-0.364-0.398-0.652-0.866-0.862-1.4c-0.208-0.535-0.314-1.104-0.314-1.711c0-0.604,0.105-1.175,0.314-1.71
		c0.21-0.535,0.498-1.001,0.862-1.4c0.366-0.398,0.793-0.713,1.281-0.941C131.669,68.175,132.194,68.061,132.753,68.061
		 M132.753,75.546c0.357,0,0.693-0.081,1.011-0.241c0.316-0.162,0.592-0.383,0.828-0.663c0.234-0.279,0.419-0.607,0.556-0.984
		c0.136-0.376,0.202-0.775,0.202-1.201c0-0.424-0.066-0.823-0.202-1.201c-0.137-0.375-0.322-0.704-0.556-0.984
		c-0.235-0.279-0.511-0.499-0.828-0.662c-0.317-0.16-0.653-0.24-1.011-0.24c-0.362,0-0.701,0.08-1.018,0.24
		c-0.317,0.163-0.594,0.383-0.828,0.662c-0.236,0.28-0.42,0.609-0.557,0.984c-0.135,0.378-0.204,0.777-0.204,1.201
		c0,0.426,0.069,0.825,0.204,1.201c0.137,0.377,0.321,0.705,0.557,0.984c0.234,0.28,0.51,0.501,0.828,0.663
		C132.052,75.465,132.391,75.546,132.753,75.546"/>
</g>
<g>
	<defs>
		<rect id="SVGID_20_" width="258.316" height="95.807"/>
	</defs>
	<clipPath id="SVGID_31_">
		<use xlink:href="#SVGID_20_"  overflow="visible"/>
	</clipPath>
	<path clip-path="url(#SVGID_31_)" fill="#757575" d="M139.093,76.751v-6.993h-0.764c-0.028,0-0.059-0.003-0.094-0.01
		c-0.067-0.01-0.137-0.036-0.211-0.075c-0.203-0.119-0.306-0.32-0.306-0.603c0-0.289,0.103-0.493,0.306-0.611
		c0.074-0.04,0.144-0.065,0.211-0.077c0.035-0.004,0.065-0.009,0.094-0.009h0.764v-1.247c0-0.537,0.117-0.973,0.348-1.307
		c0.039-0.051,0.095-0.116,0.166-0.194c0.07-0.08,0.161-0.156,0.272-0.23c0.11-0.073,0.238-0.137,0.386-0.191
		c0.146-0.053,0.316-0.08,0.51-0.08c0.105,0,0.203,0.002,0.283,0.005c0.082,0.002,0.174,0.009,0.277,0.021
		c0.055,0.007,0.133,0.016,0.229,0.029c0.096,0.015,0.186,0.03,0.271,0.047v0.035v0.152v0.466v0.654
		c-0.098-0.006-0.182-0.014-0.256-0.024h-0.219c-0.268,0-0.453,0.027-0.561,0.084c-0.211,0.108-0.314,0.314-0.314,0.619v1.162h1.537
		v1.385h-1.537v6.993H139.093L139.093,76.751z"/>
</g>
<g>
	<defs>
		<rect id="SVGID_19_" width="258.316" height="95.807"/>
	</defs>
	<clipPath id="SVGID_32_">
		<use xlink:href="#SVGID_19_"  overflow="visible"/>
	</clipPath>
	<path clip-path="url(#SVGID_32_)" fill="#757575" d="M145.027,65.106c0.266,0,0.457,0.085,0.576,0.255
		c0.045,0.062,0.076,0.126,0.09,0.19c0.014,0.066,0.021,0.112,0.021,0.141l0.008,0.018v2.664h1.537v1.384h-1.537v4.982
		c0,0.305,0.105,0.509,0.314,0.609c0.113,0.063,0.299,0.095,0.561,0.095c0.033,0,0.066-0.001,0.102-0.005
		c0.033-0.002,0.072-0.004,0.119-0.004c0.072,0,0.158-0.009,0.254-0.025v0.654v0.466v0.153v0.042
		c-0.084,0.011-0.176,0.025-0.271,0.039s-0.174,0.022-0.229,0.029c-0.104,0.012-0.195,0.019-0.277,0.021
		c-0.08,0.004-0.176,0.005-0.283,0.005c-0.193,0-0.363-0.027-0.51-0.08c-0.146-0.056-0.275-0.118-0.387-0.191
		c-0.109-0.073-0.199-0.15-0.271-0.229c-0.07-0.079-0.125-0.145-0.164-0.196c-0.232-0.333-0.35-0.769-0.35-1.306v-5.059h-0.762
		c-0.031,0-0.061-0.005-0.094-0.017c-0.068-0.012-0.139-0.038-0.213-0.078c-0.203-0.106-0.307-0.307-0.307-0.602
		c0-0.283,0.104-0.484,0.307-0.603c0.074-0.04,0.145-0.065,0.213-0.077c0.033-0.004,0.063-0.008,0.094-0.008h0.762V65.71v-0.018
		c0.006-0.028,0.018-0.074,0.031-0.141c0.014-0.064,0.043-0.129,0.09-0.19C144.568,65.191,144.761,65.106,145.027,65.106"/>
</g>
<g>
	<defs>
		<rect id="SVGID_18_" width="258.316" height="95.807"/>
	</defs>
	<clipPath id="SVGID_33_">
		<use xlink:href="#SVGID_18_"  overflow="visible"/>
	</clipPath>
	<path clip-path="url(#SVGID_33_)" fill="#757575" d="M158.683,68.382l-2.182,7.995c-0.057,0.165-0.135,0.285-0.238,0.362
		c-0.102,0.075-0.268,0.114-0.5,0.114s-0.412-0.048-0.539-0.141s-0.213-0.205-0.258-0.336l-1.615-5.872l-1.604,5.872
		c-0.045,0.131-0.131,0.243-0.26,0.336c-0.125,0.093-0.305,0.141-0.537,0.141s-0.4-0.039-0.506-0.114
		c-0.105-0.078-0.182-0.197-0.232-0.362h-0.01l-2.182-7.995h1.344l1.611,6.519l1.418-5.746v-0.016c0-0.006,0-0.009,0.004-0.009
		c0.002,0,0.004-0.003,0.004-0.01c0.018-0.05,0.039-0.118,0.068-0.203c0.027-0.084,0.074-0.166,0.145-0.241
		c0.066-0.077,0.16-0.144,0.279-0.199c0.119-0.058,0.275-0.085,0.467-0.085c0.182,0,0.33,0.027,0.445,0.085
		c0.115,0.056,0.209,0.126,0.279,0.208s0.123,0.166,0.158,0.255c0.033,0.087,0.061,0.159,0.076,0.215h-0.008l1.416,5.746
		l1.605-6.519H158.683L158.683,68.382z"/>
</g>
<g>
	<defs>
		<rect id="SVGID_17_" width="258.316" height="95.807"/>
	</defs>
	<clipPath id="SVGID_34_">
		<use xlink:href="#SVGID_17_"  overflow="visible"/>
	</clipPath>
	<path clip-path="url(#SVGID_34_)" fill="#757575" d="M166.228,73.102c-0.006,0.26-0.029,0.526-0.068,0.798
		c-0.033,0.231-0.09,0.479-0.17,0.742s-0.191,0.502-0.338,0.718c-0.131,0.204-0.273,0.376-0.426,0.518s-0.307,0.262-0.461,0.36
		c-0.156,0.1-0.311,0.181-0.459,0.246c-0.152,0.065-0.287,0.123-0.412,0.174c-0.137,0.057-0.287,0.099-0.455,0.128
		c-0.166,0.027-0.336,0.047-0.508,0.055c-0.174,0.009-0.348,0.014-0.523,0.014h-0.5c-0.764,0-1.395-0.236-1.893-0.706
		c-0.492-0.463-0.738-1.05-0.738-1.756c0-0.77,0.242-1.367,0.729-1.791c0.477-0.425,1.107-0.684,1.895-0.78l2.223-0.281
		c0.328-0.044,0.543-0.181,0.645-0.406c0.064-0.107,0.094-0.286,0.094-0.535c0-0.118-0.008-0.229-0.025-0.331
		c-0.068-0.311-0.227-0.546-0.475-0.704c-0.346-0.215-0.83-0.323-1.451-0.323c-0.154,0-0.295,0.011-0.426,0.03
		c-0.129,0.021-0.264,0.043-0.398,0.072c-0.098,0.022-0.211,0.049-0.348,0.081c-0.137,0.029-0.27,0.063-0.398,0.097
		c-0.148,0.04-0.301,0.08-0.459,0.119v-1.239c0.158-0.04,0.311-0.077,0.459-0.111c0.129-0.027,0.262-0.057,0.398-0.088
		s0.25-0.057,0.348-0.072h0.008c0.271-0.051,0.553-0.077,0.84-0.077c0.98,0,1.775,0.188,2.387,0.561
		c0.604,0.374,0.906,0.953,0.906,1.74v0.009v2.741H166.228z M164.835,72.465c-0.096,0.034-0.178,0.063-0.246,0.084
		c-0.068,0.023-0.139,0.046-0.213,0.069c-0.072,0.022-0.135,0.039-0.186,0.05c-0.107,0.029-0.244,0.056-0.412,0.081
		c-0.166,0.026-0.314,0.048-0.445,0.063l-0.84,0.11c-0.256,0.034-0.471,0.071-0.645,0.111c-0.178,0.04-0.33,0.096-0.459,0.169
		c-0.436,0.237-0.652,0.625-0.652,1.164c0,0.395,0.148,0.713,0.449,0.949c0.293,0.233,0.641,0.348,1.043,0.348
		c0.498,0,0.977-0.112,1.434-0.339c0.775-0.384,1.164-1.004,1.164-1.859L164.835,72.465z"/>
</g>
<g>
	<defs>
		<rect id="SVGID_16_" width="258.316" height="95.807"/>
	</defs>
	<clipPath id="SVGID_35_">
		<use xlink:href="#SVGID_16_"  overflow="visible"/>
	</clipPath>
	<path clip-path="url(#SVGID_35_)" fill="#757575" d="M167.585,76.751v-5.474c0-0.617,0.115-1.133,0.344-1.545
		c0.23-0.413,0.523-0.745,0.883-0.992c0.359-0.25,0.756-0.429,1.191-0.537c0.438-0.106,0.861-0.16,1.275-0.16v1.426
		c-0.25,0-0.508,0.027-0.773,0.08c-0.266,0.055-0.508,0.149-0.73,0.284c-0.221,0.137-0.402,0.321-0.547,0.553
		s-0.217,0.527-0.217,0.882v0.01v5.474H167.585L167.585,76.751z"/>
</g>
<g>
	<defs>
		<rect id="SVGID_15_" width="258.316" height="95.807"/>
	</defs>
	<clipPath id="SVGID_36_">
		<use xlink:href="#SVGID_15_"  overflow="visible"/>
	</clipPath>
	<path clip-path="url(#SVGID_36_)" fill="#757575" d="M180.087,72.456c0,0.125-0.006,0.247-0.018,0.366
		c-0.012,0.118-0.025,0.233-0.041,0.348h-0.027v0.007h-6.484c0.068,0.341,0.182,0.655,0.34,0.942c0.158,0.289,0.35,0.54,0.574,0.752
		c0.223,0.213,0.473,0.378,0.75,0.497c0.277,0.118,0.568,0.178,0.875,0.178c0.373,0,0.725-0.088,1.053-0.263
		c0.328-0.176,0.609-0.417,0.848-0.722l1.096,0.832c-0.373,0.451-0.816,0.81-1.328,1.069c-0.514,0.26-1.068,0.391-1.668,0.391
		c-0.561,0-1.086-0.114-1.574-0.344c-0.49-0.229-0.916-0.543-1.281-0.942c-0.365-0.398-0.652-0.866-0.863-1.4
		c-0.209-0.535-0.313-1.104-0.313-1.711c0-0.604,0.104-1.175,0.313-1.71c0.211-0.535,0.498-1.001,0.863-1.4
		c0.365-0.398,0.791-0.713,1.281-0.941c0.488-0.229,1.014-0.344,1.574-0.344c0.553,0,1.076,0.114,1.564,0.344
		c0.49,0.229,0.918,0.543,1.283,0.941c0.365,0.399,0.652,0.865,0.865,1.4S180.087,71.852,180.087,72.456 M176.056,69.368
		c-0.307,0-0.598,0.058-0.875,0.178c-0.277,0.117-0.527,0.284-0.75,0.496c-0.225,0.212-0.416,0.463-0.574,0.752
		c-0.158,0.288-0.271,0.603-0.34,0.941h5.068c-0.068-0.339-0.18-0.653-0.336-0.941c-0.154-0.289-0.346-0.54-0.568-0.752
		s-0.473-0.379-0.75-0.496C176.654,69.426,176.363,69.368,176.056,69.368"/>
</g>
<g>
	<defs>
		<rect id="SVGID_14_" width="258.316" height="95.807"/>
	</defs>
	<clipPath id="SVGID_37_">
		<use xlink:href="#SVGID_14_"  overflow="visible"/>
	</clipPath>
	<path clip-path="url(#SVGID_37_)" fill="#757575" d="M191.24,69.554c0.102,0.227,0.17,0.487,0.203,0.781h-1.408
		c-0.027-0.092-0.061-0.173-0.098-0.246s-0.078-0.142-0.123-0.204c-0.283-0.38-0.777-0.568-1.484-0.568
		c-0.572,0-0.977,0.118-1.215,0.356c-0.119,0.124-0.209,0.253-0.268,0.386s-0.088,0.281-0.088,0.446
		c0,0.323,0.133,0.563,0.398,0.722c0.197,0.106,0.652,0.245,1.365,0.415l1.096,0.264c0.549,0.131,0.977,0.309,1.281,0.534
		c0.537,0.407,0.807,0.997,0.807,1.766c0,0.95-0.344,1.633-1.025,2.046c-0.658,0.401-1.42,0.603-2.285,0.603
		c-0.51,0-0.961-0.068-1.357-0.204c-0.412-0.142-0.762-0.346-1.045-0.611c-0.293-0.26-0.514-0.578-0.66-0.95
		c-0.092-0.237-0.154-0.503-0.188-0.798h1.391c0.041,0.226,0.117,0.424,0.23,0.594c0.316,0.48,0.883,0.721,1.697,0.721
		c0.367,0,0.707-0.053,1.018-0.16c0.289-0.108,0.5-0.247,0.633-0.416c0.133-0.17,0.199-0.386,0.199-0.646
		c0-0.39-0.107-0.659-0.32-0.807c-0.262-0.17-0.664-0.318-1.207-0.449l-1.061-0.246c-0.709-0.164-1.211-0.348-1.51-0.552
		c-0.545-0.362-0.816-0.911-0.816-1.646c0-0.77,0.262-1.4,0.781-1.893c0.25-0.243,0.564-0.431,0.941-0.561
		c0.357-0.119,0.768-0.178,1.23-0.178c0.855,0,1.584,0.211,2.189,0.637C190.855,68.914,191.085,69.203,191.24,69.554"/>
</g>
<g>
	<defs>
		<rect id="SVGID_13_" width="258.316" height="95.807"/>
	</defs>
	<clipPath id="SVGID_38_">
		<use xlink:href="#SVGID_13_"  overflow="visible"/>
	</clipPath>
	<path clip-path="url(#SVGID_38_)" fill="#757575" d="M196.671,68.061c0.555,0,1.076,0.114,1.566,0.344
		c0.488,0.229,0.916,0.543,1.281,0.941c0.365,0.399,0.652,0.865,0.865,1.4s0.318,1.105,0.318,1.71c0,0.606-0.105,1.176-0.318,1.711
		c-0.213,0.534-0.5,1.002-0.865,1.4c-0.365,0.399-0.793,0.713-1.281,0.942c-0.49,0.229-1.012,0.344-1.566,0.344
		c-0.561,0-1.084-0.114-1.574-0.344s-0.916-0.543-1.281-0.942c-0.365-0.398-0.652-0.866-0.861-1.4
		c-0.209-0.535-0.314-1.104-0.314-1.711c0-0.604,0.105-1.175,0.314-1.71s0.496-1.001,0.861-1.4c0.365-0.398,0.791-0.713,1.281-0.941
		C195.587,68.175,196.111,68.061,196.671,68.061 M196.671,75.546c0.355,0,0.693-0.081,1.01-0.241
		c0.318-0.162,0.594-0.383,0.828-0.663c0.234-0.279,0.42-0.607,0.555-0.984c0.137-0.376,0.205-0.775,0.205-1.201
		c0-0.424-0.068-0.823-0.205-1.201c-0.135-0.375-0.32-0.704-0.555-0.984c-0.234-0.279-0.51-0.499-0.828-0.662
		c-0.316-0.16-0.654-0.24-1.01-0.24c-0.361,0-0.701,0.08-1.018,0.24c-0.318,0.163-0.594,0.383-0.828,0.662
		c-0.234,0.28-0.42,0.609-0.557,0.984c-0.135,0.378-0.203,0.777-0.203,1.201c0,0.426,0.068,0.825,0.203,1.201
		c0.137,0.377,0.322,0.705,0.557,0.984c0.234,0.28,0.51,0.501,0.828,0.663C195.97,75.465,196.31,75.546,196.671,75.546"/>
</g>
<g>
	<defs>
		<rect id="SVGID_12_" width="258.316" height="95.807"/>
	</defs>
	<clipPath id="SVGID_39_">
		<use xlink:href="#SVGID_12_"  overflow="visible"/>
	</clipPath>
	<path clip-path="url(#SVGID_39_)" fill="#757575" d="M203.283,71.65v5.101h-1.434V71.65v-2.309v-3.606
		c0.006-0.114,0.037-0.216,0.092-0.306c0.047-0.08,0.117-0.152,0.213-0.218c0.098-0.063,0.234-0.096,0.416-0.096
		c0.176,0,0.311,0.032,0.408,0.096c0.096,0.065,0.166,0.138,0.211,0.218c0.057,0.09,0.088,0.191,0.094,0.306V71.65L203.283,71.65z"
		/>
</g>
<g>
	<defs>
		<rect id="SVGID_11_" width="258.316" height="95.807"/>
	</defs>
	<clipPath id="SVGID_40_">
		<use xlink:href="#SVGID_11_"  overflow="visible"/>
	</clipPath>
	<path clip-path="url(#SVGID_40_)" fill="#757575" d="M207.748,76.854c-0.408,0-0.799-0.078-1.176-0.233
		c-0.377-0.156-0.707-0.368-0.992-0.638c-0.287-0.268-0.514-0.584-0.684-0.946s-0.254-0.746-0.254-1.153v-5.491h1.416v5.491
		c0,0.243,0.045,0.473,0.137,0.687c0.09,0.216,0.215,0.402,0.373,0.561s0.344,0.284,0.557,0.378
		c0.211,0.093,0.439,0.141,0.682,0.141c0.244,0,0.469-0.048,0.676-0.141c0.205-0.094,0.381-0.22,0.525-0.378s0.258-0.346,0.34-0.561
		c0.082-0.214,0.123-0.443,0.123-0.687v-0.009v-5.482h1.426v5.482c0,0.412-0.088,0.8-0.264,1.162s-0.408,0.679-0.699,0.946
		c-0.293,0.27-0.627,0.481-1.006,0.638C208.548,76.775,208.156,76.854,207.748,76.854"/>
</g>
<g>
	<defs>
		<rect id="SVGID_10_" width="258.316" height="95.807"/>
	</defs>
	<clipPath id="SVGID_41_">
		<use xlink:href="#SVGID_10_"  overflow="visible"/>
	</clipPath>
	<path clip-path="url(#SVGID_41_)" fill="#757575" d="M214.113,65.106c0.266,0,0.457,0.085,0.576,0.255
		c0.047,0.062,0.076,0.126,0.09,0.19c0.014,0.066,0.021,0.112,0.021,0.141l0.008,0.018v2.664h1.537v1.384h-1.537v4.982
		c0,0.305,0.105,0.509,0.314,0.609c0.113,0.063,0.301,0.095,0.559,0.095c0.035,0,0.07-0.001,0.104-0.005
		c0.033-0.002,0.074-0.004,0.119-0.004c0.074,0,0.158-0.009,0.256-0.025v0.654v0.466v0.153v0.042
		c-0.086,0.011-0.178,0.025-0.273,0.039s-0.172,0.022-0.229,0.029c-0.102,0.012-0.193,0.019-0.275,0.021
		c-0.082,0.004-0.178,0.005-0.285,0.005c-0.191,0-0.361-0.027-0.508-0.08c-0.148-0.056-0.277-0.118-0.389-0.191
		c-0.109-0.073-0.199-0.15-0.27-0.229s-0.127-0.145-0.166-0.196c-0.232-0.333-0.348-0.769-0.348-1.306v-5.059h-0.764
		c-0.029,0-0.061-0.005-0.094-0.017c-0.068-0.012-0.139-0.038-0.213-0.078c-0.203-0.106-0.305-0.307-0.305-0.602
		c0-0.283,0.102-0.484,0.305-0.603c0.074-0.04,0.145-0.065,0.213-0.077c0.033-0.004,0.064-0.008,0.094-0.008h0.764V65.71v-0.018
		c0.004-0.028,0.016-0.074,0.029-0.141c0.014-0.064,0.045-0.129,0.088-0.19C213.656,65.191,213.845,65.106,214.113,65.106"/>
</g>
<g>
	<defs>
		<rect id="SVGID_9_" width="258.316" height="95.807"/>
	</defs>
	<clipPath id="SVGID_42_">
		<use xlink:href="#SVGID_9_"  overflow="visible"/>
	</clipPath>
	<path clip-path="url(#SVGID_42_)" fill="#757575" d="M219.019,66.015c0,0.113-0.021,0.218-0.064,0.313
		c-0.043,0.097-0.1,0.182-0.174,0.255c-0.072,0.073-0.16,0.132-0.258,0.174c-0.1,0.043-0.207,0.064-0.32,0.064
		s-0.217-0.021-0.313-0.064c-0.098-0.042-0.182-0.101-0.256-0.174c-0.072-0.073-0.131-0.158-0.174-0.255
		c-0.043-0.096-0.064-0.2-0.064-0.313c0-0.112,0.021-0.219,0.064-0.318c0.043-0.099,0.102-0.185,0.174-0.26
		c0.074-0.073,0.158-0.13,0.256-0.173c0.096-0.042,0.201-0.063,0.313-0.063c0.229,0,0.42,0.078,0.578,0.236
		S219.019,65.789,219.019,66.015 M217.49,68.374h1.445v8.377h-1.445V68.374z"/>
</g>
<g>
	<defs>
		<rect id="SVGID_8_" width="258.316" height="95.807"/>
	</defs>
	<clipPath id="SVGID_43_">
		<use xlink:href="#SVGID_8_"  overflow="visible"/>
	</clipPath>
	<path clip-path="url(#SVGID_43_)" fill="#757575" d="M224.111,68.061c0.555,0,1.076,0.114,1.566,0.344
		c0.488,0.229,0.916,0.543,1.281,0.941c0.365,0.399,0.654,0.865,0.865,1.4c0.213,0.535,0.318,1.105,0.318,1.71
		c0,0.606-0.105,1.176-0.318,1.711c-0.211,0.534-0.5,1.002-0.865,1.4c-0.365,0.399-0.793,0.713-1.281,0.942
		c-0.49,0.229-1.012,0.344-1.566,0.344c-0.561,0-1.086-0.114-1.574-0.344c-0.49-0.229-0.916-0.543-1.281-0.942
		c-0.365-0.398-0.652-0.866-0.861-1.4c-0.211-0.535-0.314-1.104-0.314-1.711c0-0.604,0.104-1.175,0.314-1.71
		c0.209-0.535,0.496-1.001,0.861-1.4c0.365-0.398,0.791-0.713,1.281-0.941C223.025,68.175,223.55,68.061,224.111,68.061
		 M224.111,75.546c0.357,0,0.693-0.081,1.01-0.241c0.316-0.162,0.594-0.383,0.828-0.663c0.234-0.279,0.42-0.607,0.557-0.984
		c0.135-0.376,0.203-0.775,0.203-1.201c0-0.424-0.068-0.823-0.203-1.201c-0.137-0.375-0.322-0.704-0.557-0.984
		c-0.234-0.279-0.512-0.499-0.828-0.662c-0.316-0.16-0.652-0.24-1.01-0.24c-0.361,0-0.703,0.08-1.018,0.24
		c-0.316,0.163-0.594,0.383-0.828,0.662c-0.234,0.28-0.42,0.609-0.557,0.984c-0.137,0.378-0.203,0.777-0.203,1.201
		c0,0.426,0.066,0.825,0.203,1.201c0.137,0.377,0.322,0.705,0.557,0.984c0.234,0.28,0.512,0.501,0.828,0.663
		C223.408,75.465,223.75,75.546,224.111,75.546"/>
</g>
<g>
	<defs>
		<rect id="SVGID_7_" width="258.316" height="95.807"/>
	</defs>
	<clipPath id="SVGID_44_">
		<use xlink:href="#SVGID_7_"  overflow="visible"/>
	</clipPath>
	<path clip-path="url(#SVGID_44_)" fill="#757575" d="M232.632,68.035c0.424,0,0.83,0.08,1.215,0.241
		c0.383,0.161,0.725,0.382,1.021,0.663c0.297,0.279,0.533,0.604,0.709,0.975s0.264,0.769,0.264,1.193v5.644h-1.471v-5.644
		c0-0.254-0.045-0.493-0.139-0.713c-0.094-0.221-0.223-0.414-0.385-0.577c-0.166-0.165-0.355-0.295-0.574-0.392
		c-0.219-0.096-0.455-0.143-0.709-0.143s-0.486,0.047-0.695,0.143c-0.209,0.097-0.391,0.227-0.543,0.392
		c-0.154,0.163-0.273,0.356-0.357,0.577c-0.086,0.22-0.127,0.459-0.127,0.713v0.008v5.636h-1.469v-5.636
		c0-0.425,0.092-0.823,0.273-1.197c0.18-0.374,0.42-0.699,0.721-0.979c0.299-0.281,0.646-0.502,1.039-0.663
		S232.208,68.035,232.632,68.035"/>
</g>
<g>
	<defs>
		<rect id="SVGID_6_" width="258.316" height="95.807"/>
	</defs>
	<clipPath id="SVGID_45_">
		<use xlink:href="#SVGID_6_"  overflow="visible"/>
	</clipPath>
	<path clip-path="url(#SVGID_45_)" fill="#005E9D" d="M85.351,75.719c0,1.066-0.221,1.127-1.288,1.127h-4.989
		c-1.067,0-1.288-0.222-1.288-1.287v-6.196c0-1.067,0.221-1.287,1.288-1.287h4.989c1.066,0,1.288,0.22,1.288,1.287V75.719z"/>
</g>
<g>
	<defs>
		<rect id="SVGID_5_" width="258.316" height="95.807"/>
	</defs>
	<clipPath id="SVGID_46_">
		<use xlink:href="#SVGID_5_"  overflow="visible"/>
	</clipPath>
	<path clip-path="url(#SVGID_46_)" fill="#005E9D" d="M114.752,51.296c0.746,0,1.383,0.265,1.914,0.797
		c0.531,0.529,0.796,1.168,0.796,1.912c0,0.746-0.26,1.39-0.779,1.932c-3.5,3.048-7.621,4.572-12.363,4.572
		c-5.239,0-9.709-1.852-13.413-5.556c-3.703-3.702-5.555-8.173-5.555-13.412c0-5.238,1.852-9.709,5.555-13.413
		c3.704-3.703,8.174-5.555,13.413-5.555c5.238,0,9.709,1.852,13.413,5.555c3.704,3.704,5.555,8.175,5.555,13.413
		c0,0.745-0.265,1.383-0.796,1.914c-0.53,0.531-1.168,0.795-1.914,0.795H91.009c0.496,2.597,1.739,4.889,3.726,6.876
		c2.641,2.642,5.836,3.963,9.585,3.963c3.387,0,6.3-1.072,8.739-3.217C113.555,51.487,114.12,51.296,114.752,51.296 M117.631,38.832
		c-0.497-2.597-1.739-4.889-3.726-6.876c-2.642-2.642-5.838-3.963-9.585-3.963c-3.749,0-6.944,1.321-9.585,3.963
		c-1.987,1.987-3.23,4.279-3.726,6.876H117.631z"/>
</g>
<g>
	<defs>
		<rect id="SVGID_4_" width="258.316" height="95.807"/>
	</defs>
	<clipPath id="SVGID_47_">
		<use xlink:href="#SVGID_4_"  overflow="visible"/>
	</clipPath>
	<path clip-path="url(#SVGID_47_)" fill="#005E9D" d="M134.126,28.264l0.135-0.136c3.704-3.703,8.173-5.554,13.414-5.554
		c5.238,0,9.709,1.852,13.412,5.554c3.703,3.704,5.555,8.175,5.555,13.413c0,5.239-1.852,9.71-5.555,13.412
		c-3.703,3.704-8.174,5.556-13.412,5.556c-5.24,0-9.71-1.852-13.414-5.556c-3.704-3.702-5.555-8.173-5.555-13.412V8.958
		c0-0.745,0.265-1.383,0.797-1.914c0.529-0.53,1.167-0.796,1.914-0.796c0.745,0,1.382,0.266,1.914,0.796
		c0.529,0.531,0.795,1.168,0.795,1.914V28.264L134.126,28.264z M147.675,55.09c3.746,0,6.943-1.321,9.584-3.963
		c2.643-2.642,3.963-5.837,3.963-9.586c0-3.748-1.32-6.944-3.963-9.585c-2.641-2.642-5.838-3.963-9.584-3.963
		c-3.75,0-6.945,1.321-9.586,3.963c-2.643,2.642-3.963,5.837-3.963,9.585c0,3.749,1.32,6.944,3.963,9.586
		C140.73,53.769,143.925,55.09,147.675,55.09"/>
</g>
<g>
	<defs>
		<rect id="SVGID_3_" width="258.316" height="95.807"/>
	</defs>
	<clipPath id="SVGID_48_">
		<use xlink:href="#SVGID_3_"  overflow="visible"/>
	</clipPath>
	<path clip-path="url(#SVGID_48_)" fill="#005E9D" d="M178.767,41.541c-2.055-0.767-3.488-1.569-4.301-2.405
		c-1.604-1.581-2.404-3.488-2.404-5.725c0-2.235,0.834-4.188,2.506-5.859c3.252-3.319,7.496-4.979,12.734-4.979
		c5.668,0,10.523,2.27,14.566,6.809c0.359,0.429,0.529,0.96,0.508,1.592c0,0.745-0.268,1.383-0.797,1.913
		c-0.531,0.531-1.17,0.797-1.914,0.797c-0.746,0-1.344-0.237-1.795-0.712c-0.451-0.474-0.779-0.813-0.982-1.016
		c-2.641-2.642-5.838-3.963-9.586-3.963s-6.738,1.174-8.975,3.522c-0.543,0.656-0.813,1.434-0.813,2.337
		c0.066,1.062,0.619,1.784,1.658,2.167l16.664,5.521c2.055,0.768,3.49,1.57,4.303,2.404c1.604,1.582,2.404,3.489,2.404,5.725
		c0,2.236-0.834,4.188-2.506,5.859c-3.252,3.32-7.496,4.979-12.736,4.979c-5.689,0-10.545-2.269-14.564-6.809
		c-0.338-0.473-0.508-1.004-0.508-1.592c0-0.745,0.266-1.383,0.797-1.914c0.529-0.529,1.168-0.796,1.914-0.796
		c0.744,0,1.344,0.237,1.795,0.712c0.451,0.474,0.779,0.813,0.982,1.017c2.641,2.642,5.836,3.963,9.584,3.963
		c3.75,0,6.74-1.175,8.977-3.523c0.543-0.654,0.813-1.434,0.813-2.337c-0.066-1.061-0.621-1.783-1.66-2.167L178.767,41.541z"/>
</g>
<g>
	<defs>
		<rect id="SVGID_2_" width="258.316" height="95.807"/>
	</defs>
	<clipPath id="SVGID_49_">
		<use xlink:href="#SVGID_2_"  overflow="visible"/>
	</clipPath>
	<path clip-path="url(#SVGID_49_)" fill="#005E9D" d="M214.669,41.541c-2.055-0.767-3.488-1.569-4.301-2.405
		c-1.604-1.581-2.404-3.488-2.404-5.725c0-2.235,0.834-4.188,2.506-5.859c3.252-3.319,7.498-4.979,12.736-4.979
		c5.666,0,10.521,2.27,14.564,6.809c0.359,0.429,0.529,0.96,0.508,1.592c0,0.745-0.266,1.383-0.797,1.913
		c-0.531,0.531-1.168,0.797-1.914,0.797c-0.744,0-1.344-0.237-1.795-0.712c-0.451-0.474-0.779-0.813-0.982-1.016
		c-2.641-2.642-5.838-3.963-9.584-3.963c-3.75,0-6.74,1.174-8.977,3.522c-0.541,0.656-0.813,1.434-0.813,2.337
		c0.066,1.062,0.619,1.784,1.66,2.167l16.662,5.521c2.057,0.768,3.49,1.57,4.303,2.404c1.604,1.582,2.404,3.489,2.404,5.725
		c0,2.236-0.834,4.188-2.506,5.859c-3.252,3.32-7.496,4.979-12.734,4.979c-5.691,0-10.547-2.269-14.566-6.809
		c-0.338-0.473-0.508-1.004-0.508-1.592c0-0.745,0.266-1.383,0.797-1.914c0.529-0.529,1.168-0.796,1.914-0.796
		s1.344,0.237,1.795,0.712c0.451,0.474,0.779,0.813,0.982,1.017c2.641,2.642,5.836,3.963,9.586,3.963
		c3.748,0,6.738-1.175,8.975-3.523c0.543-0.654,0.813-1.434,0.813-2.337c-0.066-1.061-0.621-1.783-1.658-2.167L214.669,41.541z"/>
</g>
<g>
	<defs>
		<rect id="SVGID_1_" width="258.316" height="95.807"/>
	</defs>
	<clipPath id="SVGID_50_">
		<use xlink:href="#SVGID_1_"  overflow="visible"/>
	</clipPath>
	<path clip-path="url(#SVGID_50_)" fill="#005E9D" d="M34.846,47.359h-5.298c-0.425,2.563-0.02,6.528,1.257,10.03
		c1.113,3.056,3.115,6.003,5.167,7.951c4.035,3.827,9.182,5.973,14.974,5.973c5.793,0,11.246-2.163,15.364-6.289
		c1.439-1.444,3.353-3.75,4.677-6.906c0.691-1.648,1.144-3.493,1.48-5.256c0,0,0.251-0.765,0.938-1.319
		c0.412-0.333,0.898-0.521,1.764-0.521c1.038,0.001,1.975,0.731,2.323,1.454c0.322,0.57,0.343,1.223,0.223,1.912
		c-0.197,1.136-0.447,2.349-0.795,3.403c-1.419,4.309-3.365,7.7-6.86,11.208c-5.276,5.299-11.648,7.848-19.114,7.848
		c-7.466,0-13.731-2.759-19.115-7.95c-3.345-3.226-6.06-7.799-7.199-12.813c-0.911-4.008-0.917-8.064-0.32-11.347
		c0.15-0.827,0.371-1.675,0.969-2.236c0.77-0.721,1.433-0.773,2.621-0.773h8.401l-0.023-0.002c0.604,0,1.078,0.138,1.489,0.34
		c0.412,0.202,0.832,0.596,1.093,1.065l4.376,8.985l5.31-9.739c0.534-0.919,1.185-1.472,2.444-1.472
		c1.243,0,1.982,0.557,2.419,1.472l5.31,9.758l4.393-9.004c0.267-0.567,0.8-0.956,1.203-1.146c0.403-0.189,0.828-0.254,1.052-0.262
		c0.224-0.009,0.437-0.002,0.437-0.002h5.199c0,0-1.183-3.869-4.642-7.133c-4.55-4.294-9.44-6.41-15.415-6.379
		c-2.638,0.013-5.235,0.435-7.488,1.291c-2.251,0.855-4.737,2.253-6.393,3.71c-1.476,1.298-2.801,2.787-3.81,4.174
		c-0.596,0.82-2.171,1.432-3.478,0.596c-1.657-1.06-1.466-2.36-1.305-3.044c0.194-0.817,1.527-2.898,4.855-5.798
		c4.822-4.202,10.893-6.562,17.618-6.562c7.466,0,14.037,2.749,19.313,8.046c3.914,3.929,6.266,8.406,7.221,13.513l0.008,0.031
		c0.074,1.081-0.129,1.755-0.728,2.315c-0.77,0.721-1.531,0.873-2.719,0.873h-6.812l-0.019-0.026l-5.824,12.041
		c0,0-0.221,0.491-0.68,0.942c-0.45,0.446-1.023,0.698-1.875,0.698c-0.843,0-1.41-0.256-1.825-0.703
		c-0.2-0.216-0.629-0.938-0.629-0.938l-5.386-9.817l-5.285,9.719c0,0-0.488,0.821-0.688,1.036c-0.415,0.447-0.982,0.703-1.825,0.703
		c-0.852,0-1.425-0.252-1.875-0.698c-0.458-0.451-0.746-1.041-0.746-1.041l-5.741-11.936L34.846,47.359z"/>
</g>
</svg>
